<?xml version="1.0" encoding="UTF-8"?>
<svg xmlns="http://www.w3.org/2000/svg" xmlns:xlink="http://www.w3.org/1999/xlink" viewBox="0 0 499.99 500">
  <defs>
    <style>
      .cls-1, .cls-2, .cls-3 {
        fill: #fff;
      }

      .cls-4, .cls-3 {
        opacity: .17;
      }

      .cls-5 {
        filter: url(#drop-shadow-1);
      }

      .cls-6 {
        isolation: isolate;
      }

      .cls-2 {
        font-family: MyanmarText-Bold, 'Myanmar Text';
        font-weight: 700;
      }

      .cls-2, .cls-7 {
        font-size: 57.28px;
      }

      .cls-8, .cls-9, .cls-10, .cls-7 {
        mix-blend-mode: multiply;
      }

      .cls-8, .cls-7 {
        fill: #c8c8c8;
      }

      .cls-11 {
        letter-spacing: -.08em;
      }

      .cls-9 {
        fill: #e2e2e2;
      }

      .cls-10 {
        fill: url(#radial-gradient);
        filter: url(#drop-shadow-2);
        opacity: .28;
      }

      .cls-12 {
        letter-spacing: 0em;
      }

      .cls-7 {
        font-family: Montserrat-SemiBold, 'Montserrat SemiBold';
        font-weight: 600;
      }

      .cls-13 {
        letter-spacing: 0em;
      }

      .cls-14 {
        fill: url(#linear-gradient);
      }
    </style>
    <filter id="drop-shadow-1" x="100" y="90" width="321" height="321" filterUnits="userSpaceOnUse">
      <feOffset dx="4" dy="4"/>
      <feGaussianBlur result="blur" stdDeviation="5"/>
      <feFlood flood-color="#000" flood-opacity=".25"/>
      <feComposite in2="blur" operator="in"/>
      <feComposite in="SourceGraphic"/>
    </filter>
    <linearGradient id="linear-gradient" x1="122.33" y1="243.81" x2="384.66" y2="243.81" gradientUnits="userSpaceOnUse">
      <stop offset="0" stop-color="#ff6c3e"/>
      <stop offset=".18" stop-color="#ff6440"/>
      <stop offset=".45" stop-color="#ff5046"/>
      <stop offset=".77" stop-color="#ff2f50"/>
      <stop offset="1" stop-color="#ff1359"/>
    </linearGradient>
    <radialGradient id="radial-gradient" cx="253.49" cy="243.81" fx="253.49" fy="243.81" r="131.17" gradientUnits="userSpaceOnUse">
      <stop offset="0" stop-color="#eee"/>
      <stop offset=".11" stop-color="#e5e5e5"/>
      <stop offset=".28" stop-color="#ccc"/>
      <stop offset=".5" stop-color="#a5a5a5"/>
      <stop offset=".75" stop-color="#6f6f6f"/>
      <stop offset="1" stop-color="#333"/>
    </radialGradient>
    <filter id="drop-shadow-2" x="111" y="101" width="293" height="293" filterUnits="userSpaceOnUse">
      <feOffset dx="4" dy="4"/>
      <feGaussianBlur result="blur-2" stdDeviation="5"/>
      <feFlood flood-color="#000" flood-opacity=".25"/>
      <feComposite in2="blur-2" operator="in"/>
      <feComposite in="SourceGraphic"/>
    </filter>
  </defs>
  <g class="cls-6">
    <g id="OBJECTS">
      <polygon class="cls-8" points="380.25 178.72 499.99 394.19 499.99 499.99 234.97 500 122.33 298.61 380.25 178.72"/>
      <g class="cls-5">
        <circle class="cls-1" cx="253.89" cy="243.81" r="142.11" transform="translate(-98.03 250.94) rotate(-45)"/>
        <g>
          <circle class="cls-14" cx="253.49" cy="243.81" r="131.16"/>
          <path class="cls-10" d="M384.66,243.81c0,28.31-8.97,54.53-24.22,75.96-23.77,33.42-62.83,55.21-106.95,55.21-72.44,0-131.17-58.72-131.17-131.17s58.73-131.16,131.17-131.16,131.17,58.72,131.17,131.16Z"/>
          <text id="REPORT" class="cls-7" transform="translate(162.57 266.11)"><tspan x="0" y="0">S</tspan><tspan class="cls-11" x="28.24" y="0">T</tspan><tspan class="cls-13" x="52.41" y="0">A</tspan><tspan class="cls-12" x="87.47" y="0">R</tspan><tspan x="118.8" y="0">T</tspan></text>
          <text class="cls-2" transform="translate(159.57 264.11)"><tspan x="0" y="0">REPORT</tspan></text>
          <g class="cls-4">
            <path class="cls-1" d="M352.07,194.14c-2.08,0-4.12-.99-5.38-2.83-26.31-38.36-57.83-49.15-58.15-49.26-3.42-1.13-5.27-4.82-4.14-8.24,1.13-3.42,4.82-5.27,8.24-4.14,1.46.48,36.03,12.31,64.8,54.25,2.04,2.97,1.28,7.03-1.69,9.06-1.13.77-2.41,1.14-3.68,1.14Z"/>
          </g>
          <circle class="cls-3" cx="271.53" cy="130.03" r="6.7"/>
          <path class="cls-9" d="M360.45,319.76c-23.77,33.42-62.83,55.21-106.95,55.21-72.44,0-131.17-58.72-131.17-131.17,0,0,59.76,154.47,238.12,75.96Z"/>
        </g>
      </g>
    </g>
  </g>
</svg>